<svg width="618" height="587" viewBox="0 0 618 587" fill="none" xmlns="http://www.w3.org/2000/svg">
<g clip-path="url(#clip0_9872_1327)">
<path d="M558.929 470.23C552.051 479.373 544.642 488.095 536.757 496.358C522.269 511.529 506.152 525.18 488.663 536.979C447.264 564.976 398.164 582.712 344.728 586.322C285.84 590.298 229.825 576.574 181.913 549.659C171.724 543.942 161.9 537.639 152.497 530.768C137.093 519.518 122.788 506.784 109.836 492.767C65.8941 445.257 37.301 382.942 32.6178 313.279C29.8188 271.834 35.7643 231.817 48.8626 195.044C53.7837 181.21 59.7291 167.835 66.6076 155.009C112.708 68.8929 200.719 7.75046 305.231 0.677949C407.219 -6.21133 500.554 40.0165 558.198 115.78C561.893 120.617 565.424 125.565 568.808 130.64C596.322 171.884 613.756 220.677 617.341 273.721C622.281 347.029 599.907 415.867 558.929 470.23Z" fill="url(#paint0_linear_9872_1327)"/>
<path d="M479.425 496.34C429.227 512.885 378.059 526.462 326.269 536.979C318.988 496.597 301.335 398.021 294.054 357.638C293.286 353.406 292.517 349.082 293.194 344.831C294.036 339.444 297.091 334.68 300.237 330.228C314.598 309.981 332.416 292.556 351.167 276.433C366.205 263.515 390.791 235.848 412.177 236.05C432.007 236.233 430.471 261.738 431.202 275.993C432.556 302.341 435.099 328.579 440.422 354.468C446.368 383.436 465.924 470.01 479.443 496.358L479.425 496.34Z" fill="url(#paint1_linear_9872_1327)"/>
<path d="M181.913 549.659C171.724 543.942 161.9 537.639 152.497 530.768C153.796 528.13 155.095 525.51 156.393 522.908C164.79 505.996 173.663 489.249 183.505 473.125C185.956 469.094 193.365 453.099 199.53 449.233C200.792 448.427 202 448.133 203.097 448.555C204.451 449.068 212.098 453.337 221.098 457.038C249.838 468.875 280.645 474.976 311.726 474.884H312.311C312.823 474.884 313.317 474.884 313.83 474.866C314.342 474.848 314.836 474.848 315.348 474.829H315.476C361.32 474.188 422.092 466.896 457.125 426.476C524.702 435.363 531.781 482.561 536.757 496.358C522.269 511.529 506.152 525.18 488.663 536.979C447.264 564.976 398.164 582.713 344.728 586.322C285.84 590.298 229.825 576.575 181.913 549.659Z" fill="url(#paint2_linear_9872_1327)"/>
<path d="M109.836 492.767C146.131 468.398 185.078 445.238 199.475 447.144C200.957 447.345 202.164 447.804 203.097 448.555C204.78 449.911 203.555 455.059 201.25 461.197C196.896 472.686 188.718 487.673 188.718 487.673C199.183 509.056 195.158 531.281 181.913 549.659C171.724 543.942 161.9 537.639 152.497 530.768C137.093 519.518 122.788 506.784 109.836 492.767Z" fill="url(#paint3_linear_9872_1327)"/>
<path d="M478.071 463.524C478.071 463.524 452.277 430.562 457.125 426.476C467.278 417.901 518.354 441.665 558.929 470.23C552.051 479.373 544.642 488.095 536.757 496.358C522.269 511.529 506.152 525.18 488.663 536.979C487.09 532.6 485.809 529.577 484.895 528.258C471.632 509.074 467.607 485.859 478.071 463.524Z" fill="url(#paint4_linear_9872_1327)"/>
<path d="M442.746 296.532C438.648 320.773 425.403 342.504 410.75 362.255C396.097 382.007 379.76 400.733 367.997 422.317C360.808 435.472 355.393 449.801 345.862 461.326C326.836 484.357 295.28 492.309 265.735 496.541C252.289 498.484 238.569 499.821 225.324 496.816C212.153 493.775 199.475 485.621 194.243 473.089C187.127 456.049 195.286 435.729 189.066 418.267C183.34 402.217 165.431 391.535 162.778 374.275C160.967 362.585 165.028 345.783 168.303 334.423C176.334 306.555 194.28 281.032 194.408 251.166C194.408 239.806 191.755 228.702 191.28 217.361C190.932 207.998 192.377 197.957 197.463 190.39C198.487 188.704 199.695 187.22 201.048 185.827C211.769 175.292 229.203 175.567 243.6 180.056C247.167 181.192 251.082 182.529 254.594 181.21C257.613 180.038 259.607 177.344 261.4 174.742C270.418 161.99 280.059 149.402 292.645 140.076C305.158 130.786 321.092 125.088 336.459 127.727C339.185 128.258 341.91 128.973 344.325 130.017C356.18 134.341 366.131 143.319 373.339 153.818C382.047 166.515 387.133 181.412 391.706 196.18C393.664 202.574 416.201 152.682 420.446 157.904C425.751 164.628 416.531 185.424 423.318 190.61C442.892 205.543 446.752 272.237 442.782 296.514L442.746 296.532Z" fill="url(#paint5_linear_9872_1327)"/>
<path d="M240.783 342.779C249.637 338.07 257.43 331.62 265.461 325.592C269.431 322.624 274.699 319.637 278.998 322.074C284.029 324.932 283.169 332.408 281.084 337.813C272.376 360.332 254.777 378.013 237.636 394.998C236.685 395.932 235.679 396.922 234.398 397.27C233.191 397.6 231.91 397.362 230.684 397.068C218.629 394.192 188.481 378.654 192.871 362.237C196.731 347.781 229.697 348.66 240.783 342.76V342.779Z" fill="#101828"/>
<path d="M436.709 157.574C422.476 155.357 409.103 151.051 396.719 145.17L386.181 212.835C398.566 218.698 411.957 222.986 426.19 225.203C506.097 237.68 580.973 182.914 593.431 102.881C595.243 91.2098 595.48 79.7032 594.566 68.4165C569.43 129.742 504.981 168.238 436.709 157.574Z" fill="#101828"/>
<path d="M150.576 173.13C164.973 172.36 178.693 169.429 191.627 164.848L195.268 233.228C182.352 237.809 168.595 240.704 154.216 241.473C73.4495 245.779 4.50026 183.702 0.20123 102.808C-0.420758 91.0266 0.512224 79.5383 2.54283 68.4165C21.3488 131.959 81.5902 176.794 150.576 173.13Z" fill="#101828"/>
<path d="M285.895 116.055C274.681 114.003 262.845 115.102 251.32 116.861C228.142 120.434 204.726 126.957 185.535 140.003C166.345 153.048 151.93 173.46 151.985 194.512C152.039 215.547 169.29 235.701 192.414 236.966C199.494 237.351 206.665 236.086 213.689 234.474C238.862 228.721 263.503 218.332 282.694 201.915C298.993 187.953 309.238 170.437 314.799 151.253C320.177 132.729 305.03 119.573 285.913 116.055H285.895Z" fill="url(#paint6_linear_9872_1327)"/>
<path d="M418.781 352.361C418.433 352.929 418.049 353.552 417.61 354.23C406.927 371.069 397.78 388.787 389.493 406.908C383.895 419.165 376.303 429.206 364.412 440.548C348.057 456.159 329.251 470.688 311.982 485.31C318.897 481.993 315.403 483.514 322.3 480.216C333.276 474.958 357.863 458.87 367.522 451.541C387.7 436.26 396.773 417.791 405.664 394.393C407.567 389.409 411.335 382.887 414.921 377.225C422.586 365.114 428.477 351.921 431.824 337.96C433.05 332.866 433.763 328.322 433.324 325.684C428.989 332.023 422.787 345.783 418.763 352.343L418.781 352.361Z" fill="#F79009"/>
<path d="M234.288 250.268C232.971 248.143 231.178 246.127 228.782 245.486C226.257 244.808 223.477 245.834 221.556 247.63C219.891 249.187 218.867 251.276 218.098 253.438C218.501 253.658 218.958 253.896 219.342 254.116C221.245 255.27 222.946 256.571 223.714 257.963C224.501 259.356 224.208 260.84 222.525 261.665C221.025 262.398 218.684 262.471 216.379 262.343C216.031 270.569 218.812 279.346 227.465 281.233C228.087 281.38 228.745 281.453 229.367 281.306C230.245 281.105 230.922 280.445 231.544 279.786C238.715 271.962 239.904 259.283 234.307 250.268H234.288Z" fill="#101828"/>
<path d="M319.391 241.015C318.074 238.89 316.281 236.874 313.884 236.233C311.36 235.555 308.579 236.581 306.658 238.377C304.994 239.934 303.969 242.023 303.201 244.185C303.603 244.405 304.061 244.643 304.445 244.863C306.347 246.017 308.049 247.318 308.817 248.711C309.604 250.103 309.311 251.587 307.628 252.412C306.128 253.145 303.786 253.218 301.481 253.09C301.134 261.316 303.914 270.093 312.567 271.98C313.189 272.127 313.848 272.2 314.47 272.053C315.348 271.852 316.025 271.192 316.647 270.533C323.818 262.709 325.007 250.03 319.409 241.015H319.391Z" fill="#101828"/>
<path d="M331.556 356.191C332.453 366.873 328.739 378.05 322.135 386.899C315.622 395.896 306.677 402.858 296.963 407.879C287.212 412.899 276.638 416.051 265.918 417.48C255.216 418.964 244.332 418.671 233.886 416.564C244.496 415.611 254.832 414.292 264.875 411.855C274.882 409.381 284.596 406.028 293.615 401.374C302.615 396.739 310.921 390.802 317.708 383.326C324.495 375.869 329.361 366.653 331.556 356.209V356.191Z" fill="#00093F"/>
<path d="M426.922 98.8503C419.037 94.2146 410.055 90.4402 399.572 89.3592C393.042 88.6995 386.035 89.0843 378.992 90.0921C346.63 94.7093 313.427 113.398 291.749 137.309C281.614 148.486 270.931 161.642 275.285 172.745C280.279 185.534 293.597 194.659 307.573 200.394C324.257 207.247 343.831 210.178 363.204 213.055C373.339 214.557 383.73 216.078 394.908 214.466C425.403 210.105 453.576 182.108 458.167 157.153C462.759 132.197 448.142 111.383 426.903 98.8686L426.922 98.8503Z" fill="url(#paint7_linear_9872_1327)"/>
</g>
<defs>
<linearGradient id="paint0_linear_9872_1327" x1="201.085" y1="27.4472" x2="449.478" y2="559.272" gradientUnits="userSpaceOnUse">
<stop stop-color="#E16E56"/>
<stop offset="1" stop-color="#E85D2C"/>
</linearGradient>
<linearGradient id="paint1_linear_9872_1327" x1="355.814" y1="162.155" x2="412.242" y2="645.575" gradientUnits="userSpaceOnUse">
<stop stop-color="#FEDF89"/>
<stop offset="1" stop-color="#F79009"/>
</linearGradient>
<linearGradient id="paint2_linear_9872_1327" x1="340.301" y1="439.393" x2="355.165" y2="694.258" gradientUnits="userSpaceOnUse">
<stop stop-color="#0691AE"/>
<stop offset="0.36" stop-color="#047B9C"/>
<stop offset="1" stop-color="#024C74"/>
</linearGradient>
<linearGradient id="paint3_linear_9872_1327" x1="155.717" y1="452.421" x2="167.149" y2="648.25" gradientUnits="userSpaceOnUse">
<stop stop-color="#0691AE"/>
<stop offset="0.36" stop-color="#047B9C"/>
<stop offset="1" stop-color="#024C74"/>
</linearGradient>
<linearGradient id="paint4_linear_9872_1327" x1="506.426" y1="427.209" x2="518.63" y2="636.157" gradientUnits="userSpaceOnUse">
<stop stop-color="#0691AE"/>
<stop offset="0.36" stop-color="#047B9C"/>
<stop offset="1" stop-color="#024C74"/>
</linearGradient>
<linearGradient id="paint5_linear_9872_1327" x1="286.371" y1="170.253" x2="342.817" y2="653.674" gradientUnits="userSpaceOnUse">
<stop stop-color="#FEDF89"/>
<stop offset="1" stop-color="#F79009"/>
</linearGradient>
<linearGradient id="paint6_linear_9872_1327" x1="233.922" y1="237.039" x2="233.922" y2="114.937" gradientUnits="userSpaceOnUse">
<stop stop-color="#0691AE"/>
<stop offset="0.36" stop-color="#047B9C"/>
<stop offset="1" stop-color="#024C74"/>
</linearGradient>
<linearGradient id="paint7_linear_9872_1327" x1="366.662" y1="215.144" x2="366.662" y2="89.0294" gradientUnits="userSpaceOnUse">
<stop stop-color="#0691AE"/>
<stop offset="0.36" stop-color="#047B9C"/>
<stop offset="1" stop-color="#024C74"/>
</linearGradient>
<clipPath id="clip0_9872_1327">
<rect width="618" height="587" fill="white"/>
</clipPath>
</defs>
</svg>
