<svg width="740" height="165" viewBox="0 0 740 165" fill="none" xmlns="http://www.w3.org/2000/svg">
<path d="M63.7 164.445C48.02 164.445 35.6067 162.42 26.46 158.369C17.444 154.319 10.976 149.027 7.056 142.493C3.136 135.96 1.176 128.904 1.176 121.325C1.176 109.827 5.22667 100.484 13.328 93.2972C21.4293 86.1106 34.3653 82.4519 52.136 82.3213L93.688 81.9293V71.5413H82.908V76.8333C69.58 77.3559 56.448 77.8786 43.512 78.4013C30.576 78.9239 17.7053 78.7279 4.9 77.8133C1.63333 57.4293 1.96 37.6986 5.88 18.6213C9.66933 18.6213 14.2427 18.6866 19.6 18.8173C25.088 18.9479 30.8373 19.1439 36.848 19.4053C42.9893 19.5359 49 19.6666 54.88 19.7972C60.76 19.9279 65.9867 20.0586 70.56 20.1893C68.8613 24.1093 67.8813 28.0293 67.62 31.9493C67.4893 35.8693 68.0773 39.6586 69.384 43.3172C70.0373 32.4719 74.1533 24.9586 81.732 20.7772C89.3107 16.5959 100.025 14.5053 113.876 14.5053C131.777 14.5053 145.497 17.1186 155.036 22.3453C164.575 27.4413 170.912 35.0853 174.048 45.2773C175.616 50.1119 176.269 55.3386 176.008 60.9573C175.877 66.4453 175.485 71.8026 174.832 77.0293C174.179 82.2559 173.852 86.9599 173.852 91.1413C173.852 99.1119 175.093 104.796 177.576 108.193C180.189 111.46 182.933 113.616 185.808 114.661C186.984 118.451 187.637 123.22 187.768 128.969C188.029 134.719 187.899 140.468 187.376 146.217C186.853 151.967 185.939 156.932 184.632 161.113C178.883 162.42 172.872 163.269 166.6 163.661C160.328 164.184 155.232 164.445 151.312 164.445C141.381 164.445 133.607 163.269 127.988 160.917C122.369 158.565 119.56 154.253 119.56 147.981C119.56 145.76 119.952 143.408 120.736 140.925C121.651 138.443 122.696 135.764 123.872 132.889L118.776 130.341C116.424 136.091 113.157 141.579 108.976 146.805C104.925 152.032 99.2413 156.279 91.924 159.545C84.7373 162.812 75.3293 164.445 63.7 164.445ZM82.908 107.017H93.688V94.6692H82.908V107.017ZM248.571 164.445C234.851 164.445 223.026 161.505 213.095 155.625C203.164 149.615 195.52 140.991 190.163 129.753C184.806 118.516 182.127 104.992 182.127 89.1813C182.127 66.3146 186.962 48.6746 196.631 36.2613C206.431 23.7173 220.608 17.4453 239.163 17.4453C248.048 17.4453 256.411 19.7973 264.251 24.5013C272.091 29.0746 279.016 34.6933 285.027 41.3573L289.339 37.6333C286.464 34.3666 283.067 31.0999 279.147 27.8333C275.227 24.4359 269.804 20.9079 262.879 17.2493C263.14 13.9826 263.598 10.7813 264.251 7.64526C264.904 4.50926 265.688 1.96125 266.603 0.0012492C272.222 0.523917 279.604 1.17725 288.751 1.96126C297.898 2.61459 307.24 2.94126 316.779 2.94126C326.056 2.94126 334.484 2.67992 342.063 2.15726C349.772 1.50392 356.371 0.915923 361.859 0.393256C363.035 4.05192 363.884 7.57992 364.407 10.9773C364.93 14.2439 365.191 17.5759 365.191 20.9733C365.191 27.1146 364.538 33.1906 363.231 39.2013C362.055 45.0813 360.814 51.4839 359.507 58.4093C358.331 65.2039 357.743 73.1746 357.743 82.3213C357.743 90.5533 358.331 96.8906 359.507 101.333C360.683 105.776 362.186 108.977 364.015 110.937C365.844 112.767 367.739 114.073 369.699 114.857C370.875 119.3 371.594 124.461 371.855 130.341C372.116 136.221 371.986 141.971 371.463 147.589C370.94 153.077 369.96 157.585 368.523 161.113C363.296 160.46 357.678 159.872 351.667 159.349C345.656 158.827 339.188 158.5 332.263 158.369C325.599 158.239 319.98 158.239 315.407 158.369C310.834 158.5 306.914 158.696 303.647 158.957C300.38 159.219 297.179 159.48 294.043 159.741C295.611 157.781 296.852 155.233 297.767 152.097C298.812 148.831 299.466 145.433 299.727 141.905C300.119 138.377 300.184 135.176 299.923 132.301C298.486 137.789 295.872 143.016 292.083 147.981C288.294 152.816 282.871 156.736 275.815 159.741C268.89 162.877 259.808 164.445 248.571 164.445ZM267.975 98.7852H278.559V80.5573H267.975V98.7852ZM431.8 164.445C418.08 164.445 406.255 161.505 396.324 155.625C386.394 149.615 378.75 140.991 373.392 129.753C368.035 118.516 365.356 104.992 365.356 89.1813C365.356 66.3146 370.191 48.6746 379.86 36.2613C389.66 23.7173 403.838 17.4453 422.392 17.4453C431.278 17.4453 439.64 19.7973 447.48 24.5013C455.32 29.0746 462.246 34.6933 468.256 41.3573L472.568 37.6333C469.694 34.3666 466.296 31.0999 462.376 27.8333C458.456 24.4359 453.034 20.9079 446.108 17.2493C446.37 13.9826 446.827 10.7813 447.48 7.64526C448.134 4.50926 448.918 1.96125 449.832 0.0012492C455.451 0.523917 462.834 1.17725 471.98 1.96126C481.127 2.61459 490.47 2.94126 500.008 2.94126C509.286 2.94126 517.714 2.67992 525.292 2.15726C533.002 1.50392 539.6 0.915923 545.088 0.393256C546.264 4.05192 547.114 7.57992 547.636 10.9773C548.159 14.2439 548.42 17.5759 548.42 20.9733C548.42 27.1146 547.767 33.1906 546.46 39.2013C545.284 45.0813 544.043 51.4839 542.736 58.4093C541.56 65.2039 540.972 73.1746 540.972 82.3213C540.972 90.5533 541.56 96.8906 542.736 101.333C543.912 105.776 545.415 108.977 547.244 110.937C549.074 112.767 550.968 114.073 552.928 114.857C554.104 119.3 554.823 124.461 555.084 130.341C555.346 136.221 555.215 141.971 554.692 147.589C554.17 153.077 553.19 157.585 551.752 161.113C546.526 160.46 540.907 159.872 534.896 159.349C528.886 158.827 522.418 158.5 515.492 158.369C508.828 158.239 503.21 158.239 498.636 158.369C494.063 158.5 490.143 158.696 486.876 158.957C483.61 159.219 480.408 159.48 477.272 159.741C478.84 157.781 480.082 155.233 480.996 152.097C482.042 148.831 482.695 145.433 482.956 141.905C483.348 138.377 483.414 135.176 483.152 132.301C481.715 137.789 479.102 143.016 475.312 147.981C471.523 152.816 466.1 156.736 459.044 159.741C452.119 162.877 443.038 164.445 431.8 164.445ZM451.204 98.7852H461.788V80.5573H451.204V98.7852ZM614.728 164.445C599.048 164.445 586.635 162.42 577.488 158.369C568.472 154.319 562.004 149.027 558.084 142.493C554.164 135.96 552.204 128.904 552.204 121.325C552.204 109.827 556.255 100.484 564.356 93.2972C572.457 86.1106 585.393 82.4519 603.164 82.3213L644.716 81.9293V71.5413H633.936V76.8333C620.608 77.3559 607.476 77.8786 594.54 78.4013C581.604 78.9239 568.733 78.7279 555.928 77.8133C552.661 57.4293 552.988 37.6986 556.908 18.6213C560.697 18.6213 565.271 18.6866 570.628 18.8173C576.116 18.9479 581.865 19.1439 587.876 19.4053C594.017 19.5359 600.028 19.6666 605.908 19.7972C611.788 19.9279 617.015 20.0586 621.588 20.1893C619.889 24.1093 618.909 28.0293 618.648 31.9493C618.517 35.8693 619.105 39.6586 620.412 43.3172C621.065 32.4719 625.181 24.9586 632.76 20.7772C640.339 16.5959 651.053 14.5053 664.904 14.5053C682.805 14.5053 696.525 17.1186 706.064 22.3453C715.603 27.4413 721.94 35.0853 725.076 45.2773C726.644 50.1119 727.297 55.3386 727.036 60.9573C726.905 66.4453 726.513 71.8026 725.86 77.0293C725.207 82.2559 724.88 86.9599 724.88 91.1413C724.88 99.1119 726.121 104.796 728.604 108.193C731.217 111.46 733.961 113.616 736.836 114.661C738.012 118.451 738.665 123.22 738.796 128.969C739.057 134.719 738.927 140.468 738.404 146.217C737.881 151.967 736.967 156.932 735.66 161.113C729.911 162.42 723.9 163.269 717.628 163.661C711.356 164.184 706.26 164.445 702.34 164.445C692.409 164.445 684.635 163.269 679.016 160.917C673.397 158.565 670.588 154.253 670.588 147.981C670.588 145.76 670.98 143.408 671.764 140.925C672.679 138.443 673.724 135.764 674.9 132.889L669.804 130.341C667.452 136.091 664.185 141.579 660.004 146.805C655.953 152.032 650.269 156.279 642.952 159.545C635.765 162.812 626.357 164.445 614.728 164.445ZM633.936 107.017H644.716V94.6692H633.936V107.017Z" fill="white"/>
</svg>
